# xmcd
#
# Track frame offsets: 
#        182
#        11682
#        21860
#        32295
#        43825
#        53275
#        66665
#        77465
#        91087
#        102760
#        112937
#        123142
#        132890
#        139957
#        150972
#        162662
#        175780
#        186280
#        196962
#        208767
#        219352
#        229730
#        241192
#        251557
#        262022
#        270700
#        280542
#        291930
#        301800
#        312510
#
# Disc length: 4288 seconds
#
# Revision: 4
# Processed by: cddbd v1.5.2PL0 Copyright (c) Steve Scherf et al.
# Submitted via: ExactAudioCopyFreeDBPlugin 1.0
#
DISCID=9910be1e
DTITLE=Various Artist - Treasure Chest Of Northern Soul
DYEAR=1900
DGENRE=Northern Soul
TTITLE0=Bobby Womack - What Is This
TTITLE1=Joe Hicks - Don't It Make You Feel Funky
TTITLE2=Timothy Wilson - I Must Love You
TTITLE3=The Whispers - Remember Me
TTITLE4=Billy Hambrick - I Found True Love
TTITLE5=J.J.Barnes - Hole In The Wall
TTITLE6=Darrow Fletcher - What Good Am I Without You
TTITLE7=Towanda Barnes - You Don't Mean It
TTITLE8=Edwin Starr - My Kind Of Woman
TTITLE9=Claude Huey - Feel Good All Over
TTITLE10=Chi-lites - Love Bandit
TTITLE11=Marlynns - The Very Next Time
TTITLE12=Micky Wilson - Gee Baby (You're Driving Me Crazy)
TTITLE13=Willy Harvey - My Baby Ain't No Plaything
TTITLE14=The O Jays - I'll Never Let You Go
TTITLE15=Timothy Wilson - Lovingly Yours
TTITLE16=Therese Lindsay - Daddy O
TTITLE17=Rose Batise - Come Back In A Hurry
TTITLE18=Fred and Bobbies Rythm Section - What Is This
TTITLE19=The Gems - I'll Be There
TTITLE20=Cholli Maye - You Will Never Get Away
TTITLE21=Lester Lipton - This Won't Change
TTITLE22=The Furys - Just A Little Mixed Up
TTITLE23=Tony Hester - Watch Yourself
TTITLE24=Candi Staton - Now You've Got The Upper Hand
TTITLE25=Ollie Jackson - The Day My Heart Stood Still
TTITLE26=The Cooperettes - Shing-A-Ling
TTITLE27=Ron Baxter - This Is It
TTITLE28=The Masqueraders - I Got The Power
TTITLE29=Barbara and Brenda - Don't Wait Up For Mama
EXTD=ID3G: 42
EXTT0=
EXTT1=
EXTT2=
EXTT3=
EXTT4=
EXTT5=
EXTT6=
EXTT7=
EXTT8=
EXTT9=
EXTT10=
EXTT11=
EXTT12=
EXTT13=
EXTT14=
EXTT15=
EXTT16=
EXTT17=
EXTT18=
EXTT19=
EXTT20=
EXTT21=
EXTT22=
EXTT23=
EXTT24=
EXTT25=
EXTT26=
EXTT27=
EXTT28=
EXTT29=
PLAYORDER=
